<mxfile host="drawio-plugin" modified="2021-05-18T12:46:40.623Z" agent="5.0 (Windows NT 6.2; Win64; x64) AppleWebKit/537.36 (KHTML, like Gecko) Chrome/87.0.4280.141 Safari/537.36" version="14.6.6" etag="9HvMUNVjEpm4FUJlNHsa" type="embed"><diagram id="wtenL6Ayn6lERC124HPW" name="Page-1"><mxGraphModel dx="1050" dy="686" grid="1" gridSize="10" guides="1" tooltips="1" connect="1" arrows="1" fold="1" page="1" pageScale="1" pageWidth="850" pageHeight="1100" background="#ffffff" math="0" shadow="0"><root><mxCell id="0"/><mxCell id="1" parent="0"/><mxCell id="2" value="Subject" style="swimlane;fontStyle=3;align=center;verticalAlign=top;childLayout=stackLayout;horizontal=1;startSize=26;horizontalStack=0;resizeParent=1;resizeParentMax=0;resizeLast=0;collapsible=1;marginBottom=0;fontColor=#000000;strokeColor=#0000CC;strokeWidth=2;fillColor=#FFFFFF;" vertex="1" parent="1"><mxGeometry x="280" y="190" width="200" height="112" as="geometry"/></mxCell><mxCell id="5" value="" style="line;strokeWidth=2;align=left;verticalAlign=middle;spacingTop=-1;spacingLeft=3;spacingRight=3;rotatable=0;labelPosition=right;points=[];portConstraint=eastwest;fontColor=#000000;strokeColor=#0000CC;fillColor=#FFFFFF;" vertex="1" parent="2"><mxGeometry y="26" width="200" height="8" as="geometry"/></mxCell><mxCell id="6" value="+ subscribe(observer: Observer)" style="text;align=left;verticalAlign=top;spacingLeft=4;spacingRight=4;overflow=hidden;rotatable=0;points=[[0,0.5],[1,0.5]];portConstraint=eastwest;fontColor=#000000;strokeColor=#0000CC;strokeWidth=2;fillColor=#FFFFFF;fontStyle=2" vertex="1" parent="2"><mxGeometry y="34" width="200" height="26" as="geometry"/></mxCell><mxCell id="7" value="+ unsubscribe(observer: Observer)" style="text;align=left;verticalAlign=top;spacingLeft=4;spacingRight=4;overflow=hidden;rotatable=0;points=[[0,0.5],[1,0.5]];portConstraint=eastwest;fontColor=#000000;strokeColor=#0000CC;strokeWidth=2;fillColor=#FFFFFF;fontStyle=2" vertex="1" parent="2"><mxGeometry y="60" width="200" height="26" as="geometry"/></mxCell><mxCell id="8" value="+ notify(observer: Observer)" style="text;align=left;verticalAlign=top;spacingLeft=4;spacingRight=4;overflow=hidden;rotatable=0;points=[[0,0.5],[1,0.5]];portConstraint=eastwest;fontColor=#000000;strokeColor=#0000CC;strokeWidth=2;fillColor=#FFFFFF;fontStyle=2" vertex="1" parent="2"><mxGeometry y="86" width="200" height="26" as="geometry"/></mxCell><mxCell id="9" value="DayPartPublisher" style="swimlane;fontStyle=1;align=center;verticalAlign=top;childLayout=stackLayout;horizontal=1;startSize=26;horizontalStack=0;resizeParent=1;resizeParentMax=0;resizeLast=0;collapsible=1;marginBottom=0;fontColor=#000000;strokeColor=#0000CC;strokeWidth=2;fillColor=#FFFFFF;" vertex="1" parent="1"><mxGeometry x="280" y="410" width="200" height="190" as="geometry"/></mxCell><mxCell id="14" value="# _state: int" style="text;align=left;verticalAlign=top;spacingLeft=4;spacingRight=4;overflow=hidden;rotatable=0;points=[[0,0.5],[1,0.5]];portConstraint=eastwest;fontColor=#000000;strokeColor=#0000CC;strokeWidth=2;fillColor=#FFFFFF;fontStyle=0" vertex="1" parent="9"><mxGeometry y="26" width="200" height="26" as="geometry"/></mxCell><mxCell id="15" value="# _observers: list[Observer]" style="text;align=left;verticalAlign=top;spacingLeft=4;spacingRight=4;overflow=hidden;rotatable=0;points=[[0,0.5],[1,0.5]];portConstraint=eastwest;fontColor=#000000;strokeColor=#0000CC;strokeWidth=2;fillColor=#FFFFFF;fontStyle=0" vertex="1" parent="9"><mxGeometry y="52" width="200" height="26" as="geometry"/></mxCell><mxCell id="10" value="" style="line;strokeWidth=2;align=left;verticalAlign=middle;spacingTop=-1;spacingLeft=3;spacingRight=3;rotatable=0;labelPosition=right;points=[];portConstraint=eastwest;fontColor=#000000;strokeColor=#0000CC;fillColor=#FFFFFF;" vertex="1" parent="9"><mxGeometry y="78" width="200" height="8" as="geometry"/></mxCell><mxCell id="11" value="+ subscribe(observer: Observer)" style="text;align=left;verticalAlign=top;spacingLeft=4;spacingRight=4;overflow=hidden;rotatable=0;points=[[0,0.5],[1,0.5]];portConstraint=eastwest;fontColor=#000000;strokeColor=#0000CC;strokeWidth=2;fillColor=#FFFFFF;fontStyle=0" vertex="1" parent="9"><mxGeometry y="86" width="200" height="26" as="geometry"/></mxCell><mxCell id="12" value="+ unsubscribe(observer: Observer)" style="text;align=left;verticalAlign=top;spacingLeft=4;spacingRight=4;overflow=hidden;rotatable=0;points=[[0,0.5],[1,0.5]];portConstraint=eastwest;fontColor=#000000;strokeColor=#0000CC;strokeWidth=2;fillColor=#FFFFFF;fontStyle=0" vertex="1" parent="9"><mxGeometry y="112" width="200" height="26" as="geometry"/></mxCell><mxCell id="13" value="+ notify(observer: Observer)" style="text;align=left;verticalAlign=top;spacingLeft=4;spacingRight=4;overflow=hidden;rotatable=0;points=[[0,0.5],[1,0.5]];portConstraint=eastwest;fontColor=#000000;strokeColor=#0000CC;strokeWidth=2;fillColor=#FFFFFF;fontStyle=0" vertex="1" parent="9"><mxGeometry y="138" width="200" height="26" as="geometry"/></mxCell><mxCell id="16" value="+ change_part(observer: Observer)" style="text;align=left;verticalAlign=top;spacingLeft=4;spacingRight=4;overflow=hidden;rotatable=0;points=[[0,0.5],[1,0.5]];portConstraint=eastwest;fontColor=#000000;strokeColor=#0000CC;strokeWidth=2;fillColor=#FFFFFF;fontStyle=0" vertex="1" parent="9"><mxGeometry y="164" width="200" height="26" as="geometry"/></mxCell><mxCell id="17" value="Extends" style="endArrow=block;endSize=16;endFill=0;html=1;entryX=0.5;entryY=1;entryDx=0;entryDy=0;exitX=0.5;exitY=0;exitDx=0;exitDy=0;strokeWidth=2;fontSize=17;fontColor=#000000;labelBackgroundColor=none;strokeColor=#0000FF;" edge="1" parent="1" source="9" target="2"><mxGeometry x="-0.0741" y="-40" width="160" relative="1" as="geometry"><mxPoint x="340" y="340" as="sourcePoint"/><mxPoint x="500" y="340" as="targetPoint"/><mxPoint as="offset"/></mxGeometry></mxCell><mxCell id="18" value="Observer" style="swimlane;fontStyle=3;align=center;verticalAlign=top;childLayout=stackLayout;horizontal=1;startSize=26;horizontalStack=0;resizeParent=1;resizeParentMax=0;resizeLast=0;collapsible=1;marginBottom=0;fontColor=#000000;strokeColor=#0000CC;strokeWidth=2;fillColor=#FFFFFF;" vertex="1" parent="1"><mxGeometry x="590" y="190" width="200" height="60" as="geometry"/></mxCell><mxCell id="19" value="" style="line;strokeWidth=2;align=left;verticalAlign=middle;spacingTop=-1;spacingLeft=3;spacingRight=3;rotatable=0;labelPosition=right;points=[];portConstraint=eastwest;fontColor=#000000;strokeColor=#0000CC;fillColor=#FFFFFF;" vertex="1" parent="18"><mxGeometry y="26" width="200" height="8" as="geometry"/></mxCell><mxCell id="20" value="+ update(state: int)" style="text;align=left;verticalAlign=top;spacingLeft=4;spacingRight=4;overflow=hidden;rotatable=0;points=[[0,0.5],[1,0.5]];portConstraint=eastwest;fontColor=#000000;strokeColor=#0000CC;strokeWidth=2;fillColor=#FFFFFF;fontStyle=2" vertex="1" parent="18"><mxGeometry y="34" width="200" height="26" as="geometry"/></mxCell><mxCell id="23" value="FirstShiftObserver" style="swimlane;fontStyle=1;align=center;verticalAlign=top;childLayout=stackLayout;horizontal=1;startSize=26;horizontalStack=0;resizeParent=1;resizeParentMax=0;resizeLast=0;collapsible=1;marginBottom=0;fontColor=#000000;strokeColor=#0000CC;strokeWidth=2;fillColor=#FFFFFF;" vertex="1" parent="1"><mxGeometry x="560" y="390" width="200" height="60" as="geometry"/></mxCell><mxCell id="24" value="" style="line;strokeWidth=2;align=left;verticalAlign=middle;spacingTop=-1;spacingLeft=3;spacingRight=3;rotatable=0;labelPosition=right;points=[];portConstraint=eastwest;fontColor=#000000;strokeColor=#0000CC;fillColor=#FFFFFF;" vertex="1" parent="23"><mxGeometry y="26" width="200" height="8" as="geometry"/></mxCell><mxCell id="25" value="+ update(state: int)" style="text;align=left;verticalAlign=top;spacingLeft=4;spacingRight=4;overflow=hidden;rotatable=0;points=[[0,0.5],[1,0.5]];portConstraint=eastwest;fontColor=#000000;strokeColor=#0000CC;strokeWidth=2;fillColor=#FFFFFF;fontStyle=0" vertex="1" parent="23"><mxGeometry y="34" width="200" height="26" as="geometry"/></mxCell><mxCell id="26" value="SecondShiftObserver" style="swimlane;fontStyle=1;align=center;verticalAlign=top;childLayout=stackLayout;horizontal=1;startSize=26;horizontalStack=0;resizeParent=1;resizeParentMax=0;resizeLast=0;collapsible=1;marginBottom=0;fontColor=#000000;strokeColor=#0000CC;strokeWidth=2;fillColor=#FFFFFF;" vertex="1" parent="1"><mxGeometry x="810" y="390" width="200" height="60" as="geometry"/></mxCell><mxCell id="27" value="" style="line;strokeWidth=2;align=left;verticalAlign=middle;spacingTop=-1;spacingLeft=3;spacingRight=3;rotatable=0;labelPosition=right;points=[];portConstraint=eastwest;fontColor=#000000;strokeColor=#0000CC;fillColor=#FFFFFF;" vertex="1" parent="26"><mxGeometry y="26" width="200" height="8" as="geometry"/></mxCell><mxCell id="28" value="+ update(state: int)" style="text;align=left;verticalAlign=top;spacingLeft=4;spacingRight=4;overflow=hidden;rotatable=0;points=[[0,0.5],[1,0.5]];portConstraint=eastwest;fontColor=#000000;strokeColor=#0000CC;strokeWidth=2;fillColor=#FFFFFF;fontStyle=0" vertex="1" parent="26"><mxGeometry y="34" width="200" height="26" as="geometry"/></mxCell><mxCell id="29" value="Extends" style="endArrow=block;endSize=16;endFill=0;html=1;entryX=0.5;entryY=1;entryDx=0;entryDy=0;exitX=0.5;exitY=0;exitDx=0;exitDy=0;strokeWidth=2;fontSize=17;fontColor=#000000;labelBackgroundColor=none;strokeColor=#0000FF;" edge="1" parent="1" source="23" target="18"><mxGeometry x="-0.0741" y="-40" width="160" relative="1" as="geometry"><mxPoint x="390" y="420" as="sourcePoint"/><mxPoint x="390" y="312" as="targetPoint"/><mxPoint as="offset"/></mxGeometry></mxCell><mxCell id="30" value="Extends" style="endArrow=block;endSize=16;endFill=0;html=1;entryX=0.75;entryY=1;entryDx=0;entryDy=0;exitX=0.5;exitY=0;exitDx=0;exitDy=0;strokeWidth=2;fontSize=17;fontColor=#000000;labelBackgroundColor=none;strokeColor=#0000FF;" edge="1" parent="1" source="26" target="18"><mxGeometry x="-0.0741" y="-40" width="160" relative="1" as="geometry"><mxPoint x="400" y="430" as="sourcePoint"/><mxPoint x="400" y="322" as="targetPoint"/><mxPoint as="offset"/></mxGeometry></mxCell><mxCell id="31" value="1" style="endArrow=open;html=1;endSize=12;startArrow=diamondThin;startSize=14;startFill=0;edgeStyle=orthogonalEdgeStyle;align=left;verticalAlign=bottom;labelBackgroundColor=none;fontSize=17;fontColor=#000000;strokeColor=#0000FF;strokeWidth=2;exitX=1;exitY=0.5;exitDx=0;exitDy=0;entryX=0.25;entryY=0;entryDx=0;entryDy=0;" edge="1" parent="1" source="15" target="18"><mxGeometry x="-1" y="3" relative="1" as="geometry"><mxPoint x="500" y="350" as="sourcePoint"/><mxPoint x="550" y="350" as="targetPoint"/><Array as="points"><mxPoint x="520" y="475"/><mxPoint x="520" y="170"/><mxPoint x="640" y="170"/></Array></mxGeometry></mxCell><mxCell id="32" value="0..*" style="text;html=1;align=center;verticalAlign=middle;resizable=0;points=[];autosize=1;strokeColor=none;fontSize=17;fontColor=#000000;" vertex="1" parent="1"><mxGeometry x="600" y="140" width="40" height="30" as="geometry"/></mxCell></root></mxGraphModel></diagram></mxfile>